<svg width="200" height="200" viewBox="0 0 200 200" xmlns="http://www.w3.org/2000/svg">
  <!-- Background pattern -->
  <defs>
    <pattern id="grid" width="20" height="20" patternUnits="userSpaceOnUse">
      <circle cx="10" cy="10" r="1" fill="#e5e7eb" opacity="0.3"/>
    </pattern>
  </defs>
  <rect width="200" height="200" fill="#fafafa"/>
  <rect width="200" height="200" fill="url(#grid)"/>
  
  <!-- Central element -->
  <circle cx="100" cy="100" r="15" fill="#1e3a5f"/>
  <line x1="85" y1="100" x2="115" y2="100" stroke="#1e3a5f" stroke-width="2"/>
  <line x1="100" y1="85" x2="100" y2="115" stroke="#1e3a5f" stroke-width="2"/>
  <circle cx="75" cy="100" r="3" fill="#1e3a5f"/>
  <circle cx="125" cy="100" r="3" fill="#1e3a5f"/>
  <circle cx="100" cy="130" r="3" fill="#1e3a5f"/>
  
  <!-- Arcs -->
  <path d="M 100 85 Q 70 70 50 50" stroke="#3b82f6" stroke-width="3" fill="none" stroke-linecap="round"/>
  <circle cx="50" cy="50" r="4" fill="none" stroke="#3b82f6" stroke-width="2"/>
  
  <path d="M 100 85 Q 130 70 150 50" stroke="#10b981" stroke-width="3" fill="none" stroke-linecap="round"/>
  <circle cx="150" cy="50" r="4" fill="none" stroke="#10b981" stroke-width="2"/>
  
  <path d="M 100 115 Q 70 130 50 150" stroke="#a855f7" stroke-width="3" fill="none" stroke-linecap="round"/>
  <circle cx="50" cy="150" r="4" fill="none" stroke="#a855f7" stroke-width="2"/>
  
  <path d="M 100 115 Q 130 130 150 150" stroke="#f97316" stroke-width="3" fill="none" stroke-linecap="round"/>
  <circle cx="150" cy="150" r="4" fill="none" stroke="#f97316" stroke-width="2"/>
</svg>


